<svg xmlns="http://www.w3.org/2000/svg" viewBox="0 0 64 64">
  <defs>
    <linearGradient id="bg" x1="0" y1="0" x2="1" y2="1">
      <stop offset="0" stop-color="#34d399"/>
      <stop offset="0.55" stop-color="#059669"/>
      <stop offset="1" stop-color="#0f766e"/>
    </linearGradient>
    <radialGradient id="gloss" cx="0.25" cy="0.1" r="0.7">
      <stop offset="0" stop-color="#fff" stop-opacity="0.4"/>
      <stop offset="1" stop-color="#fff" stop-opacity="0"/>
    </radialGradient>
    <mask id="bite">
      <rect width="64" height="64" fill="#fff"/>
      <circle cx="64" cy="0" r="12.5" fill="#000"/>
      <circle cx="51.7" cy="2.2" r="4.5" fill="#000"/>
      <circle cx="55.2" cy="8.8" r="4.5" fill="#000"/>
      <circle cx="61.8" cy="12.3" r="4.5" fill="#000"/>
    </mask>
  </defs>
  <g mask="url(#bite)">
    <rect width="64" height="64" rx="16" fill="url(#bg)"/>
    <rect width="64" height="64" rx="16" fill="url(#gloss)"/>
  </g>
  <g transform="translate(10 13.5) scale(1.75)" fill="none" stroke="#fff" stroke-width="2.4" stroke-linecap="round" stroke-linejoin="round">
    <path d="M4 9h13v4a6 6 0 0 1-6 6h-1a6 6 0 0 1-6-6V9Z"/>
    <path d="M17 10h1.5a2.5 2.5 0 0 1 0 5H17"/>
    <path d="M8 3v3M12 3v3"/>
  </g>
</svg>
